<?xml version="1.0" encoding="UTF-8"?>
<svg version="1.1" xmlns="http://www.w3.org/2000/svg" width="1630" height="1630">
<path d="M0 0 C37.12027983 -0.01099786 74.24055979 -0.02154149 111.36083984 -0.03173828 C112.087301 -0.03193788 112.81376215 -0.03213747 113.56223728 -0.03234312 C191.44396684 -0.05372878 269.32569645 -0.07217204 347.20742798 -0.08468628 C348.93851497 -0.08496518 350.66960197 -0.08524408 352.40068896 -0.08552299 C388.74123522 -0.09136908 425.08178154 -0.09680243 461.42232794 -0.10175936 C479.67894194 -0.10425004 497.93555594 -0.10681998 516.19216992 -0.10946488 C518.94601283 -0.10986338 521.69985575 -0.11025962 524.45369867 -0.11065576 C566.83023763 -0.11677159 609.20677545 -0.12458137 651.58331299 -0.1373291 C652.49359109 -0.1376029 653.4038692 -0.1378767 654.34173149 -0.13815879 C669.01695439 -0.14258322 683.69217724 -0.14715056 698.36740009 -0.15173688 C740.66613478 -0.16495396 782.96486857 -0.17710427 825.26360512 -0.18227959 C826.56995951 -0.18244019 826.56995951 -0.18244019 827.9027049 -0.18260404 C847.02686605 -0.18493624 866.15102721 -0.18672564 885.27518846 -0.18800197 C892.97156145 -0.18852517 900.66793443 -0.18912641 908.3643074 -0.18975449 C909.20661152 -0.18982134 910.04891564 -0.18988819 910.91674412 -0.18995707 C937.99992042 -0.19214544 965.08309011 -0.20067215 992.16626375 -0.21256442 C1019.47631402 -0.22452703 1046.78635791 -0.23018941 1074.09641086 -0.22724798 C1077.88126698 -0.22684189 1081.6661231 -0.22650709 1085.45097923 -0.22621536 C1086.1928366 -0.2261556 1086.93469397 -0.22609584 1087.69903187 -0.22603427 C1099.38613764 -0.22527671 1111.07322978 -0.23120885 1122.76033184 -0.24001972 C1134.28847822 -0.24857037 1145.81660105 -0.24967064 1157.34475029 -0.24366363 C1163.49686357 -0.24066344 1169.64893188 -0.24069334 1175.80104022 -0.24976636 C1277.40411707 -0.39048231 1374.84555077 17.07029546 1502.375 118.25 C1506.43292542 122.35995011 1510.25568223 126.60547136 1514 131 C1514.89095625 132.01647677 1515.78297339 133.03202418 1516.67578125 134.046875 C1564.33471208 188.49621879 1594.03954548 256.70151288 1606.25 327.6875 C1606.36910736 328.36055176 1606.48821472 329.03360352 1606.6109314 329.72705078 C1612.18665657 361.62903873 1612.43773092 393.5933155 1612.36679858 425.87025232 C1612.35635957 432.16969128 1612.36363393 438.46911613 1612.36853105 444.76855844 C1612.37471233 455.77773615 1612.36998947 466.78686397 1612.35761642 477.79603577 C1612.34441922 489.59093688 1612.33790589 501.38581448 1612.33932304 513.18072319 C1612.33945216 514.30382466 1612.33945216 514.30382466 1612.33958388 515.44961504 C1612.34005309 519.26832249 1612.34062893 523.0870299 1612.34124239 526.90573733 C1612.34545005 554.45026506 1612.33522414 581.99477195 1612.31719017 609.53929329 C1612.29938821 636.79489305 1612.287858 664.05048387 1612.28463173 691.3060894 C1612.28452849 692.15433506 1612.28442526 693.00258072 1612.28431889 693.87653079 C1612.28337922 701.62459905 1612.28251616 709.37266731 1612.28174497 717.12073559 C1612.27982744 736.37664297 1612.27694987 755.63255015 1612.27341938 774.8884573 C1612.27325943 775.76507152 1612.27309948 776.64168575 1612.27293468 777.54486404 C1612.26508096 820.12765035 1612.24616275 862.71043076 1612.22631836 905.29321289 C1612.21944302 920.05979406 1612.21261677 934.82637526 1612.20599365 949.59295654 C1612.2055828 950.5088529 1612.20517196 951.42474925 1612.20474866 952.36840004 C1612.18569614 994.99199395 1612.17453311 1037.61558888 1612.16538927 1080.23918594 C1612.16479508 1083.00829885 1612.1641975 1085.77741176 1612.16359923 1088.54652467 C1612.15963969 1106.8984655 1612.15581577 1125.25040636 1612.15208265 1143.60234723 C1612.14465426 1180.11429118 1612.13642926 1216.62623493 1612.12765651 1253.13817858 C1612.12723879 1254.87674689 1612.12682163 1256.6153152 1612.12640502 1258.35388352 C1612.10765958 1336.56282955 1612.07965004 1414.77177127 1612.04760742 1492.98071289 C1612.04730762 1493.71261793 1612.04700781 1494.44452298 1612.04669892 1495.19860696 C1612.03169931 1531.79907155 1612.01617005 1568.39953591 1612 1605 C1585.16988358 1606.97768479 1558.43516468 1607.28981662 1531.5409718 1607.25693511 C1525.48359166 1607.25179113 1519.42622124 1607.25840902 1513.36884254 1607.26342177 C1502.78670308 1607.27059713 1492.2045813 1607.27052419 1481.62244225 1607.26532745 C1470.28631852 1607.25979464 1458.9502068 1607.25868837 1447.61408234 1607.26280212 C1446.5338321 1607.26318964 1446.5338321 1607.26318964 1445.43175862 1607.26358499 C1442.49787935 1607.26465172 1439.5640001 1607.26574916 1436.63012086 1607.26688554 C1409.40095457 1607.27742464 1382.1717963 1607.27819918 1354.94262886 1607.27259064 C1328.71021987 1607.26719012 1302.47781468 1607.26508498 1276.2454052 1607.26763153 C1274.59369756 1607.26778649 1272.94198993 1607.2679408 1271.2902823 1607.26809447 C1264.65171041 1607.26871548 1258.01313852 1607.26935282 1251.37456664 1607.270014 C1232.82022421 1607.27184746 1214.26588177 1607.27298907 1195.71153927 1607.27358627 C1194.44445588 1607.27362721 1194.44445588 1607.27362721 1193.15177484 1607.27366897 C1166.25991514 1607.27448679 1139.36805659 1607.27223761 1112.47619724 1607.26788712 C1111.60477227 1607.26774662 1110.7333473 1607.26760612 1109.83551552 1607.26746136 C1095.6867226 1607.26517183 1081.53792971 1607.26273274 1067.38913682 1607.26028102 C1011.28603268 1607.25056979 955.18293808 1607.25101973 899.07983398 1607.26074219 C884.9391381 1607.26318484 870.79844222 1607.26560706 856.65774632 1607.26788712 C855.35146229 1607.26809846 855.35146229 1607.26809846 854.01878868 1607.26831407 C827.15427693 1607.27263061 800.28976596 1607.27445421 773.42525387 1607.27358627 C772.15909646 1607.27354552 772.15909646 1607.27354552 770.86736012 1607.27350394 C752.33255383 1607.27287881 733.79774762 1607.27161118 715.26294141 1607.26976527 C708.63021023 1607.26910707 701.99747905 1607.2684809 695.36474786 1607.26786385 C693.71490224 1607.26770907 692.06505663 1607.26755161 690.41521101 1607.26739145 C664.19716577 1607.26485336 637.9791247 1607.26769091 611.76108002 1607.27309174 C584.60467806 1607.2786247 557.44828568 1607.27654561 530.29188509 1607.26602915 C527.36702964 1607.26492459 524.44217419 1607.26385117 521.51731873 1607.26280212 C520.79957635 1607.26254171 520.08183398 1607.2622813 519.34234184 1607.26201299 C508.04442313 1607.25809068 496.7465165 1607.26079053 485.44859889 1607.26634014 C474.30020401 1607.27167188 463.15182562 1607.26953394 452.00343223 1607.26031196 C446.05677424 1607.25559159 440.11016123 1607.25384895 434.16350479 1607.26112393 C413.39154067 1607.28460139 392.65353614 1607.26327309 371.90901089 1606.08959579 C371.19593933 1606.04941486 370.48286778 1606.00923392 369.748188 1605.96783538 C288.0954792 1601.21142214 208.16061117 1573.22500408 144 1522 C143.0821875 1521.27554687 142.164375 1520.55109375 141.21875 1519.8046875 C134.93959654 1514.7705386 129.01775744 1509.41607016 123.14453125 1503.921875 C120.35067369 1501.31098405 117.49558674 1498.77646481 114.625 1496.25 C111.14513347 1493.1264718 108.0256303 1489.90446766 105.01953125 1486.328125 C103.42954395 1484.49518026 101.81356812 1482.73554606 100.13671875 1480.984375 C92.33000832 1472.81711608 85.32033159 1464.27738136 78.61621094 1455.18554688 C77.03268026 1453.0441924 75.4280546 1450.92008396 73.8203125 1448.796875 C38.81254668 1402.04657478 15.69236542 1345.8212465 3.5625 1288.875 C3.32748779 1287.78759521 3.09247559 1286.70019043 2.8503418 1285.57983398 C-0.69990047 1267.93385397 -1.29680438 1250.0898614 -1.24888897 1232.14479446 C-1.2506765 1230.01584829 -1.25334049 1227.88690272 -1.25678983 1225.75795859 C-1.26370079 1219.94462626 -1.25828339 1214.13136294 -1.25073375 1208.31803386 C-1.24472968 1201.97954891 -1.25040233 1195.64107223 -1.25455457 1189.30258727 C-1.26022669 1178.20574781 -1.25856808 1167.10892926 -1.2518692 1156.01209068 C-1.24472296 1144.11377103 -1.24197143 1132.21546224 -1.24450874 1120.31714058 C-1.24466661 1119.56374939 -1.24482447 1118.8103582 -1.24498712 1118.03413698 C-1.24581121 1114.1920843 -1.24670406 1110.35003164 -1.2476195 1106.50797899 C-1.25408024 1078.74262355 -1.25075054 1050.97727615 -1.24202538 1023.21192169 C-1.23340008 995.71474377 -1.22849383 968.21756965 -1.22869301 940.72039032 C-1.22870093 938.99210717 -1.22870865 937.26382403 -1.22871618 935.53554088 C-1.22875355 928.58999577 -1.22881998 921.64445066 -1.22892199 914.69890555 C-1.22919958 895.28470201 -1.22881097 875.87049853 -1.22793293 856.45629501 C-1.22789326 855.57229835 -1.22785359 854.68830169 -1.22781271 853.77751725 C-1.2265052 825.61892124 -1.22233554 797.46032644 -1.21607494 769.30173111 C-1.21577053 767.93221432 -1.21577053 767.93221432 -1.21545998 766.53503052 C-1.2121514 751.70910916 -1.20865602 736.88318785 -1.20515126 722.05726654 C-1.19126069 663.24895154 -1.18461828 604.44064086 -1.18530273 545.63232422 C-1.18532312 543.77315953 -1.18534334 541.91399485 -1.18536337 540.05483017 C-1.18540356 536.34088794 -1.18544433 532.62694571 -1.18548548 528.91300349 C-1.1855769 520.58535124 -1.18566126 512.257699 -1.18573207 503.93004675 C-1.18574784 502.08555064 -1.18576428 500.24105452 -1.1857814 498.3965584 C-1.18622678 449.11076957 -1.181758 399.82498131 -1.17542917 350.53919291 C-1.17531899 349.67864614 -1.17520882 348.81809937 -1.17509531 347.93147542 C-1.17308849 332.25981878 -1.17308849 332.25981878 -1.17207072 324.57242406 C-1.16957616 305.65442315 -1.16763419 286.73642244 -1.16725707 267.81842136 C-1.16723954 266.96637484 -1.16722201 266.11432832 -1.16720395 265.23646221 C-1.16713475 261.80270034 -1.16706949 258.36893847 -1.16700647 254.9351766 C-1.16642022 223.06602091 -1.16264804 191.19686875 -1.15252777 159.32771453 C-1.15157022 156.27089475 -1.15062688 153.21407496 -1.14969444 150.15725517 C-1.14946391 149.40707321 -1.14923338 148.65689125 -1.14899586 147.8839765 C-1.14543517 136.01731016 -1.14519293 124.15064621 -1.14633027 112.28397949 C-1.14737578 100.60883356 -1.14474131 88.93369391 -1.13848015 77.25854948 C-1.13523074 71.01632237 -1.13354242 64.77410575 -1.13624074 58.53187814 C-1.13866195 52.84816058 -1.13645324 47.16446394 -1.13062263 41.48074902 C-1.1293274 39.44237675 -1.12968341 37.40400256 -1.13193924 35.36563113 C-1.14397032 23.53752524 -0.85161578 11.79903572 0 0 Z M813 447 C812.77910202 447.54709122 812.55820404 448.09418243 812.33061218 448.65785217 C796.05808827 488.95912286 779.77930206 529.25784679 763.47000122 569.54425049 C757.96253553 583.14873839 752.45804678 596.75442813 746.95654297 610.36132812 C746.12050669 612.42906233 745.28440798 614.49677129 744.44824219 616.56445312 C743.28170974 619.44914145 742.11542851 622.33393121 740.94921875 625.21875 C740.60827682 626.06175659 740.2673349 626.90476318 739.9160614 627.77331543 C739.26896184 629.37435271 738.62301935 630.97585825 737.97836304 632.57788086 C737.27971 634.30752603 736.5747634 636.03463448 735.8656311 637.76000977 C735.31496475 639.10953735 735.31496475 639.10953735 734.75317383 640.48632812 C734.41755936 641.3029895 734.08194489 642.11965088 733.73616028 642.96105957 C732.88680201 644.95222969 732.88680201 644.95222969 733 647 C730.94995117 646.39257812 728.89990234 645.78515625 726.84985352 645.17773438 C726.18819341 644.98168704 725.5265333 644.78563971 724.84482288 644.58365154 C721.01215874 643.4480478 717.17949511 642.31244228 713.34683228 641.17683411 C705.34657592 638.80638062 697.34631559 636.43594052 689.34603977 634.06555271 C684.6447533 632.67261608 679.9434697 631.2796698 675.2421875 629.88671875 C674.28666426 629.60360525 673.33114101 629.32049175 672.34666252 629.02879906 C661.87198095 625.925224 651.39734645 622.82149023 640.92285156 619.71728516 C640.02502299 619.45120925 639.12719442 619.18513334 638.20215893 618.91099453 C633.73946711 617.58844248 629.27679709 616.26581698 624.81416321 614.94306946 C616.19817657 612.38935504 607.58181 609.83693571 598.96459961 607.28735352 C595.67558505 606.31407782 592.38660766 605.34067658 589.09765625 604.3671875 C588.30633993 604.13298788 587.51502361 603.89878826 586.69972801 603.65749168 C576.54180552 600.65045252 566.39081499 597.62163088 556.24609375 594.5703125 C553.14598093 593.64119874 550.0456589 592.71278767 546.94522095 591.78475952 C544.22219942 590.96670095 541.50207633 590.13949758 538.78198242 589.31176758 C537.21157448 588.84146283 535.64102888 588.37161735 534.0703125 587.90234375 C533.38090073 587.68913483 532.69148895 587.4759259 531.98118591 587.2562561 C528.73285754 586.29691136 527.29893685 585.90035438 524 587 C524.35078613 587.59611084 524.70157227 588.19222168 525.06298828 588.80639648 C531.82319801 600.30882654 538.51238721 611.84127522 545 623.5 C549.57567734 631.72202017 554.23570695 639.8858134 559 648 C564.37196793 657.14913289 569.59076525 666.37403131 574.75 675.64453125 C578.74964452 682.81353695 582.84348044 689.92092763 587 697 C591.76429434 705.1141888 596.42422047 713.27803592 601 721.5 C607.33981695 732.89010409 613.8861802 744.15130658 620.47705078 755.39746094 C622.60180763 759.02841765 624.71484222 762.66582521 626.8125 766.3125 C627.41707031 767.36050781 628.02164063 768.40851563 628.64453125 769.48828125 C630 772 630 772 631 775 C630.44828125 775.25910156 629.8965625 775.51820313 629.328125 775.78515625 C613.68268116 783.94913785 599.16968404 795.87635544 584.71728516 805.9440918 C576.22696528 811.85341606 567.6949684 817.70007162 559.15087891 823.53125 C549.29436524 830.26187272 539.48052725 837.05236582 529.6875 843.875 C520.20941005 850.47766186 510.69176077 857.01977981 501.15087891 863.53125 C491.04643266 870.43117606 480.98360591 877.39043615 470.9375 884.375 C469.96135742 885.05344971 468.98521484 885.73189941 467.97949219 886.4309082 C465.31716762 888.28372976 462.65816777 890.14122206 460 892 C458.89229248 892.76812012 458.89229248 892.76812012 457.76220703 893.55175781 C456.15673274 894.67579126 454.57492626 895.83354976 453 897 C453 897.33 453 897.66 453 898 C522.96 909.22 592.92 920.44 665 932 C665 946.93211198 665 946.93211198 664.58239746 953.79180908 C664.51501885 954.97500831 664.51501885 954.97500831 664.44627905 956.18211055 C664.29778764 958.77429348 664.14403381 961.36613486 663.99023438 963.95800781 C663.88153291 965.83690526 663.77316944 967.71582229 663.66511536 969.59475708 C663.43318388 973.61564038 663.19893624 977.6363794 662.96284485 981.65702057 C662.58926566 988.02004345 662.22120203 994.38337831 661.85388184 1000.74676514 C661.13999101 1013.10107348 660.42052896 1025.45505429 659.70049286 1037.80900574 C658.78342535 1053.54833955 657.86899644 1069.28782528 656.95936251 1085.02759051 C656.59388637 1091.34842366 656.22573738 1097.66909369 655.85546112 1103.98964739 C655.62551058 1107.92326188 655.39768986 1111.85699771 655.17041588 1115.79076767 C655.06490518 1117.60924158 654.95850446 1119.42766411 654.85112953 1121.2460289 C654.70421825 1123.73592837 654.56053654 1126.22599498 654.41760254 1128.71612549 C654.37480211 1129.42810443 654.33200168 1130.14008337 654.28790426 1130.87363744 C654.00289569 1135.92198733 653.96685947 1140.9435505 654 1146 C658.31485866 1143.36898862 661.65795168 1140.45680631 665.171875 1136.8359375 C666.92861228 1135.0716928 668.73906855 1133.43693675 670.625 1131.8125 C674.2814379 1128.65917662 677.83486126 1125.40729197 681.375 1122.125 C685.22600689 1118.55567999 689.088775 1115.00354031 693 1111.5 C696.86662567 1108.03510167 700.69013786 1104.52695432 704.5 1101 C709.12619807 1096.71772721 713.78678675 1092.47792141 718.48046875 1088.26953125 C722.83691166 1084.34535554 727.15013444 1080.37397172 731.46777344 1076.40722656 C733.97677114 1074.10291446 736.48852172 1071.80160772 739 1069.5 C740.00130883 1068.58203861 741.00261091 1067.66406986 742.00390625 1066.74609375 C743.99031882 1064.92516169 745.97734387 1063.10490144 747.96484375 1061.28515625 C752.62078226 1057.0212323 757.27232078 1052.75281753 761.90771484 1048.46655273 C763.55641269 1046.94312479 765.20783825 1045.42269285 766.859375 1043.90234375 C768.82088231 1042.09515916 770.76592796 1040.27502484 772.703125 1038.44140625 C798.64808427 1014.16655663 798.64808427 1014.16655663 813.5625 1013.4375 C824.74012911 1014.07079343 832.59780401 1020.10183788 841 1027 C841.54140625 1027.44375977 842.0828125 1027.88751953 842.640625 1028.34472656 C851.1806716 1035.40323471 859.26896966 1042.92114212 867.31640625 1050.53125 C870.99264605 1054.00486241 874.73824646 1057.39413255 878.51171875 1060.76171875 C881.53377859 1063.48014935 884.51760803 1066.2382068 887.5 1069 C892.12072857 1073.27735948 896.77505848 1077.51310117 901.46484375 1081.71484375 C904.36913266 1084.33273129 907.24770775 1086.97753203 910.125 1089.625 C913.36211029 1092.60224819 916.6113792 1095.55953021 919.9375 1098.4375 C924.12109857 1102.06212089 928.1643461 1105.83385067 932.22241211 1109.59741211 C935.11364128 1112.27401038 938.01889404 1114.92311179 941 1117.5 C944.57353541 1120.58898824 948.03678454 1123.78875298 951.5 1127 C960.57811938 1135.4355492 960.57811938 1135.4355492 970.23046875 1143.1953125 C970.93969482 1143.72398926 971.6489209 1144.25266602 972.37963867 1144.79736328 C973.18171753 1145.39266846 973.18171753 1145.39266846 974 1146 C971.64192119 1101.83190644 969.15430908 1057.67086246 966.6330204 1013.51182079 C966.5418022 1011.91410019 966.45058707 1010.3163794 966.359375 1008.71865845 C966.31423653 1007.92800289 966.26909806 1007.13734733 966.22259176 1006.32273251 C965.90232133 1000.70901878 965.58424951 995.09518299 965.26708984 989.48129272 C964.87501852 982.54210074 964.47999701 975.60308424 964.08126324 968.66427177 C963.87392929 965.05489367 963.66795882 961.44545049 963.46544838 957.83579826 C963.24294279 953.87090054 963.01400216 949.90638935 962.78442383 945.94189453 C962.71948982 944.76747394 962.65455582 943.59305334 962.58765411 942.38304424 C962.52475441 941.31498956 962.46185471 940.24693487 962.39704895 939.14651489 C962.34417127 938.21906023 962.29129358 937.29160557 962.23681355 936.33604622 C962.07059529 933.84689553 962.07059529 933.84689553 961 931 C962.07024792 930.9429401 962.07024792 930.9429401 963.162117 930.88472748 C973.34603979 930.23068353 983.32042517 928.6692521 993.38867188 927.05664062 C995.31341727 926.75226123 997.23823423 926.44833406 999.16311646 926.14482117 C1004.35334437 925.32510699 1009.54254398 924.4990479 1014.73156548 923.67173576 C1020.17386771 922.80510944 1025.61707676 921.94421566 1031.06018066 921.0826416 C1040.18942552 919.63678205 1049.31806579 918.18715791 1058.44628906 916.73486328 C1071.32089634 914.6865321 1084.1966287 912.64534325 1097.07256985 910.6054163 C1106.00035041 909.19072521 1114.92786425 907.77435216 1123.8553257 906.35764885 C1126.01788958 906.01447606 1128.18046056 905.67134801 1130.34303856 905.32826424 C1136.50142507 904.35119568 1142.65964272 903.37307579 1148.81759262 902.39325905 C1150.68278999 902.09662285 1152.548041 901.80032374 1154.41334915 901.50438499 C1156.95748047 901.10067181 1159.50140958 900.69570796 1162.04528809 900.29040527 C1162.78448219 900.17338084 1163.52367629 900.0563564 1164.28527021 899.93578577 C1167.87373191 899.36262653 1171.44297495 898.74476461 1175 898 C1172.30840074 895.17505052 1169.5944792 892.89126369 1166.359375 890.71484375 C1165.46226807 890.10777588 1164.56516113 889.50070801 1163.64086914 888.87524414 C1162.68688232 888.23578857 1161.73289551 887.59633301 1160.75 886.9375 C1158.74333526 885.58095743 1156.73682561 884.2241854 1154.73046875 882.8671875 C1153.74739746 882.20428711 1152.76432617 881.54138672 1151.75146484 880.85839844 C1148.17645935 878.44376296 1144.61609228 876.00850353 1141.0625 873.5625 C1140.4425415 873.13622314 1139.82258301 872.70994629 1139.18383789 872.27075195 C1132.33684444 867.55542653 1125.52072581 862.79563621 1118.69946289 858.04321289 C1111.89162775 853.30443117 1105.05664319 848.60752891 1098.20385742 843.93408203 C1090.95277312 838.98245575 1083.74990717 833.96256756 1076.546875 828.94140625 C1070.55088239 824.76505311 1064.53688565 820.61699174 1058.5 816.5 C1050.48986182 811.03730373 1042.52897647 805.50588384 1034.57543945 799.96118164 C1027.51934551 795.04621446 1020.43377634 790.17625709 1013.33081055 785.3293457 C1007.8580961 781.59337739 1002.41481213 777.81952634 997 774 C1000.85406779 766.06530774 1004.99291014 758.39307447 1009.5 750.8125 C1014.43829038 742.43109458 1019.27288912 734.00227117 1024 725.5 C1029.1358927 716.27045651 1034.40213102 707.12762061 1039.75 698.01953125 C1043.92243959 690.8947181 1047.98495244 683.71453859 1052 676.5 C1057.13631389 667.27068598 1062.40212535 658.12763027 1067.75 649.01953125 C1072.52062149 640.87326911 1077.13713947 632.64699313 1081.72583008 624.3972168 C1086.52467074 615.79232906 1091.46550808 607.2754173 1096.47070312 598.7890625 C1099.13719504 594.25633885 1101.74060509 589.75031791 1104 585 C1096.19403389 586.88676073 1088.4877334 588.9764046 1080.80859375 591.32421875 C1079.71801666 591.65474747 1078.62743958 591.98527618 1077.5038147 592.32582092 C1074.4598954 593.24848354 1071.41670313 594.17350539 1068.3736763 595.09910583 C1062.12352858 596.99849405 1055.87008326 598.88702709 1049.6171875 600.77734375 C1048.85157816 601.00888279 1048.08596882 601.24042183 1047.29715919 601.4789772 C1023.76463568 608.5946133 1000.20863018 615.63209624 976.65446854 622.67569351 C973.08715818 623.74262509 969.51998167 624.81000297 965.95285034 625.87753296 C960.22936214 627.59036988 954.50561164 629.30232748 948.78165817 631.01360893 C946.66599378 631.64623298 944.55040228 632.27910084 942.43489456 632.91224861 C936.62169474 634.65186422 930.80705294 636.38648959 924.9898262 638.1125946 C922.89262228 638.73506225 920.79575509 639.358665 918.69913864 639.98310852 C915.37286565 640.97252883 912.04494092 641.95619816 908.71655273 642.93847656 C907.68773263 643.24531246 906.65891253 643.55214836 905.59891605 643.86828232 C904.64740886 644.14782887 903.69590166 644.42737541 902.71556091 644.71539307 C901.87559791 644.96400211 901.0356349 645.21261116 900.17021847 645.46875381 C898 646 898 646 895 646 C886.12957837 624.66126109 877.44651571 603.24774234 868.8125 581.8125 C868.54268688 581.14266209 868.27287376 580.47282417 867.99488449 579.78268814 C865.54250137 573.69418072 863.09057209 567.60549056 860.63902283 561.51664734 C855.05777957 547.65558112 849.45831603 533.80190134 843.85449219 519.94995117 C843.10220634 518.09033495 842.34992768 516.23071581 841.59765625 514.37109375 C841.22764496 513.45647873 840.85763367 512.54186371 840.47640991 511.59953308 C838.00735883 505.49492258 835.54263643 499.38857741 833.0802002 493.28129578 C831.33018799 488.94119266 829.57903528 484.6015501 827.82781982 480.26193237 C826.99542737 478.19829693 826.16358417 476.13443983 825.33233643 474.07034302 C824.18262373 471.2155868 823.03096312 468.36162336 821.87890625 465.5078125 C821.54434921 464.67560684 821.20979218 463.84340118 820.86509705 462.98597717 C818.68983208 457.60459315 816.39027009 452.28933732 814 447 C813.67 447 813.34 447 813 447 Z " fill="#000000" transform="translate(9,11)"/>
</svg>
