<?xml version="1.0" encoding="UTF-8" standalone="no"?>
<svg
   version="1.1"
   width="390.99356"
   height="390.99786"
   id="svg1"
   sodipodi:docname="image.svg"
   inkscape:version="1.4.2 (ebf0e940, 2025-05-08)"
   xmlns:inkscape="http://www.inkscape.org/namespaces/inkscape"
   xmlns:sodipodi="http://sodipodi.sourceforge.net/DTD/sodipodi-0.dtd"
   xmlns="http://www.w3.org/2000/svg"
   xmlns:svg="http://www.w3.org/2000/svg">
  <defs
     id="defs1" />
  <sodipodi:namedview
     id="namedview1"
     pagecolor="#505050"
     bordercolor="#ffffff"
     borderopacity="1"
     inkscape:showpageshadow="0"
     inkscape:pageopacity="0"
     inkscape:pagecheckerboard="1"
     inkscape:deskcolor="#505050"
     inkscape:zoom="0.25521472"
     inkscape:cx="362.4399"
     inkscape:cy="-209.6274"
     inkscape:window-width="1816"
     inkscape:window-height="1068"
     inkscape:window-x="2710"
     inkscape:window-y="85"
     inkscape:window-maximized="0"
     inkscape:current-layer="svg1" />
  <path
     d="m 0.29935188,0.05889389 c 8.99462002,-0.003 17.98923012,-0.005 26.98385012,-0.008 0.17603,-5e-5 0.35206,-10e-5 0.53342,-1.5e-4 18.87153,-0.005 37.74305,-0.01 56.61457,-0.0127 0.41946,-7e-5 0.83892,-1.4e-4 1.25838,-2e-4 8.80568,-0.001 17.611358,-0.003 26.417038,-0.004 4.42376,-6.1e-4 8.84752,-0.001 13.27128,-0.002 0.66729,-1e-4 1.33457,-1.9e-4 2.00185,-2.9e-4 10.26826,-0.001 20.53652,-0.003 30.80478,-0.006 0.22057,-6e-5 0.44114,-1.3e-4 0.6684,-2e-4 3.55595,-0.001 7.1119,-0.002 10.66786,-0.003 10.24941,-0.003 20.49881,-0.006 30.74822,-0.007 0.31654,-4e-5 0.31654,-4e-5 0.63948,-8e-5 4.63398,-5.7e-4 9.26795,-0.001 13.90193,-0.001 1.86491,-1.3e-4 3.72982,-2.7e-4 5.59473,-4.3e-4 0.20409,-10e-6 0.40819,-3e-5 0.61848,-5e-5 6.56252,-5.3e-4 13.12505,-0.003 19.68757,-0.005 6.6175,-0.003 13.235,-0.004 19.8525,-0.004 0.9171,10e-5 1.83421,1.8e-4 2.75132,2.5e-4 0.17976,2e-5 0.35952,3e-5 0.54473,5e-5 2.8319,1.8e-4 5.6638,-0.001 8.4957,-0.003 2.79339,-0.0019999992 5.58677,-0.0019999992 8.38015,-8.9e-4 1.49072,7.3e-4 2.98143,7.2e-4 4.47215,-9.9999917e-4 C 309.82718,-0.03399611 333.43822,4.2129739 364.33988,28.822994 c 0.98328,0.99967 1.90957,2.03231 2.81686,3.10119 0.21589,0.24724 0.43203,0.49425 0.64837,0.7411 11.54823,13.24375 18.746,29.83338 21.7047,47.09936 0.029,0.16371 0.058,0.32741 0.087,0.49608 1.351,7.75955 1.4119,15.53424 1.3947,23.384986 0,1.53222 -8e-4,3.06443 4e-4,4.59665 0,2.67777 4e-4,5.35553 0,8.0333 0,2.86888 0,5.73776 0,8.60664 10e-5,0.27318 10e-5,0.27318 10e-5,0.55187 1e-4,0.92883 2e-4,1.85765 4e-4,2.78648 10e-4,6.69968 0,13.39935 -0.01,20.09903 0,6.6294 -0.01,13.2588 -0.01,19.8882 0,0.20632 -1e-4,0.41264 -1e-4,0.62521 -2e-4,1.88457 -4e-4,3.76914 -6e-4,5.65371 -5e-4,4.68363 0,9.36726 0,14.05089 -10e-5,0.21322 -10e-5,0.42644 -2e-4,0.64612 0,10.35744 -0.01,20.71489 -0.011,31.07233 0,3.59169 0,7.18337 0,10.77506 -10e-5,0.22278 -2e-4,0.44555 -3e-4,0.67508 0,10.36737 -0.01,20.73474 -0.01,31.10211 -2e-4,0.67353 -3e-4,1.34707 -4e-4,2.0206 0,4.46376 0,8.92751 0,13.39127 0,8.88083 0,17.76166 -0.01,26.64249 -1e-4,0.42287 -2e-4,0.84575 -3e-4,1.26862 0,19.02282 -0.011,38.04565 -0.019,57.06847 0,0.17802 -10e-5,0.35604 -2e-4,0.53946 0,8.90236 -0.01,17.8048 -0.011,26.7071 -6.5012,0.4811 -12.97929,0.557 -19.49602,0.549 -1.46776,0 -2.93552,3e-4 -4.40329,0 -2.56416,0 -5.12831,0 -7.69247,4e-4 -2.74685,0 -5.49371,0 -8.24057,-6e-4 -0.26175,10e-5 -0.26175,10e-5 -0.52879,2e-4 -0.71091,3e-4 -1.42182,5e-4 -2.13273,8e-4 -6.5979,0 -13.1958,0 -19.7937,0 -6.35637,0 -12.71275,0 -19.06912,0 -0.40023,0 -0.80046,1e-4 -1.20068,1e-4 -1.60859,10e-5 -3.21719,3e-4 -4.82578,5e-4 -4.4959,4e-4 -8.9918,7e-4 -13.48771,8e-4 -0.30703,0 -0.30703,0 -0.62025,0 -6.51617,2e-4 -13.03234,-3e-4 -19.54851,0 -0.21115,0 -0.42231,0 -0.63986,-10e-5 -3.42839,-5e-4 -6.85679,0 -10.28518,0 -13.59435,0 -27.18869,0 -40.78304,10e-5 -3.42643,6e-4 -6.85286,0 -10.27929,0 -0.31653,1e-4 -0.31653,1e-4 -0.63945,1e-4 -6.50954,0 -13.01908,0 -19.52862,0 -0.3068,0 -0.3068,0 -0.6198,0 -4.49117,-1e-4 -8.98234,-5e-4 -13.47351,-9e-4 -1.60718,-2e-4 -3.21436,-3e-4 -4.82153,-5e-4 -0.39978,0 -0.79955,0 -1.19933,-1e-4 -6.35289,-6e-4 -12.70579,1e-4 -19.05868,0 -6.58027,0 -13.16054,8e-4 -19.74081,0 -0.70872,-3e-4 -1.41744,-5e-4 -2.12616,-8e-4 -0.17392,-1e-4 -0.34783,-1e-4 -0.52702,-2e-4 -2.7376,-9e-4 -5.47519,-3e-4 -8.21279,0 -2.70137,0 -5.40274,7e-4 -8.1041,0 -1.44094,0 -2.88186,0 -4.3228,2e-4 -5.03325,0.01 -10.058278,5e-4 -15.084878,-0.285 -0.17279,-0.01 -0.34557,-0.019 -0.52359,-0.03 -19.78527,-1.1569 -39.15429,-7.964 -54.70105,-20.42357 -0.2224,-0.17621 -0.44479,-0.35242 -0.67393,-0.53397 -1.5215,-1.22446 -2.95642,-2.52683 -4.37956,-3.86319 -0.67698,-0.63505 -1.3688,-1.25152 -2.06437,-1.86604 -0.84321,-0.75974 -1.59909,-1.54343 -2.3275,-2.4133 -0.38527,-0.44583 -0.77684,-0.87383 -1.18316,-1.29977 -1.89164,-1.98653 -3.59016,-4.06365 -5.21463,-6.27507 -0.38371,-0.52084 -0.77252,-1.03749 -1.1621,-1.55392 C 9.7102219,341.08046 4.1079719,327.40473 1.1687819,313.55364 c -0.0569,-0.26449 -0.11389,-0.52898 -0.17256002,-0.80148 -0.86026,-4.29205 -1.0049,-8.63226 -0.99329,-12.99705 -4.3e-4,-0.51782 -0.001,-1.03565 -0.002000003,-1.55347 -0.001999997,-1.41399 -3.6e-4,-2.82795 0.001000003,-4.24193 0.001,-1.54172 8e-5,-3.08343 -9.3e-4,-4.62514 -0.00100000272,-2.6991 -9.70002724e-4,-5.39818 6.5e-4,-8.09728 0.002,-2.89403 0.002,-5.78807 0.002,-8.68211 -3e-5,-0.18325 -7e-5,-0.36649 -1.1e-4,-0.5553 -2e-4,-0.9345 -4.2e-4,-1.86901 -6.4e-4,-2.80351 -0.002000003,-6.75339 -7.6e-4,-13.50678 0.001,-20.26017 0.002,-6.68816 0.003,-13.37632 0.003,-20.06448 -10e-6,-0.42037 -10e-6,-0.84074 -10e-6,-1.26111 -1e-5,-1.68938 -2e-5,-3.37875 -5e-5,-5.06812 -7e-5,-4.72213 3e-5,-9.44426 2.4e-4,-14.16639 1e-5,-0.21502 2e-5,-0.43003 3e-5,-0.65156 3.2e-4,-6.84904 0.001,-13.69808 0.003,-20.54712 8e-5,-0.33311 8e-5,-0.33311 1.5e-4,-0.67294 8.1e-4,-3.60612 0.002,-7.21225 0.003,-10.81837 0.003,-14.30399 0.005,-28.60798 0.005,-42.91198 0,-0.4522 -10e-6,-0.90441 -10e-6,-1.35661 -1e-5,-0.90335 -2e-5,-1.80669 -3e-5,-2.71004 -3e-5,-2.02554 -5e-5,-4.05108 -6e-5,-6.07662 -10e-6,-0.44864 -10e-6,-0.89728 -2e-5,-1.34592 -10e-5,-11.98782 9.8e-4,-23.975636 0.003,-35.963456 3e-5,-0.20932 6e-5,-0.41863 8e-5,-0.63428 4.9e-4,-3.81183 4.9e-4,-3.81183 7.4e-4,-5.68164 6e-4,-4.60144 0.001,-9.20288 0.001,-13.80432 10e-6,-0.20725 10e-6,-0.41449 2e-5,-0.62802 10e-6,-0.83519 3e-5,-1.67039 4e-5,-2.50559 1.5e-4,-7.75156 10e-4,-15.50312 0.004,-23.25468 2.3e-4,-0.74351 4.6e-4,-1.48702 6.9e-4,-2.23053 5e-5,-0.18247 1.1e-4,-0.36494 1.7e-4,-0.55294 8.6e-4,-2.88633 9.2e-4,-5.77267 6.4e-4,-8.65901 -2.5e-4,-2.83976 3.9e-4,-5.67951 0.002,-8.51926 7.8e-4,-1.51831 0.001,-3.03661 5.4e-4,-4.55491 -5.9e-4,-1.38245 -5e-5,-2.7649 0.001,-4.14736 3.1e-4,-0.4957901 2.3e-4,-0.9915901 -3.2e-4,-1.4873801 -0.003,-2.87696 0.0679,-5.73212 0.27428,-8.60201001 z M 197.29741,108.78305 c -0.0535,0.13307 -0.10705,0.26614 -0.1622,0.40325 -3.943,9.80251 -7.88751,19.6044 -11.83942,29.40329 -1.33451,3.30903 -2.66831,6.61835 -4.00138,9.92797 -0.20258,0.50294 -0.40517,1.00587 -0.60778,1.50879 -0.28266,0.70165 -0.56527,1.40332 -0.84785,2.10499 -0.0826,0.20505 -0.16523,0.41009 -0.25034,0.62135 -0.1568,0.38942 -0.31332,0.77896 -0.46953,1.16862 -0.16929,0.4207 -0.3401,0.84079 -0.51193,1.26045 -0.13344,0.32825 -0.13344,0.32825 -0.26956,0.66313 -0.0813,0.19864 -0.16265,0.39727 -0.24644,0.60193 -0.2058,0.48431 -0.2058,0.48431 -0.17838,0.98239 -0.49674,-0.14774 -0.99349,-0.29548 -1.49024,-0.44323 -0.16032,-0.0477 -0.32065,-0.0954 -0.48584,-0.1445 -0.92869,-0.27621 -1.85738,-0.55242 -2.78608,-0.82864 -1.93854,-0.57657 -3.87708,-1.15313 -5.81563,-1.72968 -1.13917,-0.33881 -2.27834,-0.67761 -3.4175,-1.01642 -0.23154,-0.0689 -0.46307,-0.13773 -0.70162,-0.20867 -2.53812,-0.75489 -5.07623,-1.50981 -7.6143,-2.26485 -0.21756,-0.0647 -0.43511,-0.12944 -0.65925,-0.19612 -1.08136,-0.32168 -2.16271,-0.64339 -3.24405,-0.96512 -2.08774,-0.62114 -4.17557,-1.24197 -6.26361,-1.8621 -0.79696,-0.23673 -1.59391,-0.4735 -2.39086,-0.71028 -0.19174,-0.057 -0.38348,-0.11393 -0.58104,-0.17262 -2.46137,-0.7314 -4.92105,-1.46811 -7.37922,-2.21028 -0.75119,-0.22599 -1.50243,-0.45181 -2.2537,-0.67753 -0.65981,-0.19898 -1.31892,-0.40018 -1.97803,-0.60151 -0.38053,-0.11439 -0.76108,-0.22867 -1.14168,-0.34282 -0.16706,-0.0519 -0.33411,-0.10371 -0.50622,-0.15714 -0.7871,-0.23335 -1.13456,-0.3298 -1.93392,-0.0623 0.085,0.14499 0.17,0.28998 0.25757,0.43937 1.63807,2.79774 3.25892,5.60279 4.83094,8.43855 1.10873,1.99985 2.2379,3.98554 3.39234,5.95916 1.30168,2.22535 2.56625,4.46913 3.81638,6.724 0.96916,1.74372 1.96113,3.47246 2.9683,5.1943 1.15444,1.97363 2.28358,3.95932 3.39234,5.95916 1.5362,2.77042 3.12245,5.50949 4.71948,8.24491 0.51485,0.88316 1.02686,1.76789 1.53515,2.65487 0.14649,0.25491 0.29298,0.50982 0.44392,0.77245 0.32844,0.61092 0.32844,0.61092 0.57075,1.34062 -0.13369,0.063 -0.26737,0.12604 -0.40511,0.19097 -3.79105,1.98573 -7.30769,4.8868 -10.80965,7.33558 -2.05729,1.43733 -4.12468,2.85942 -6.195,4.27774 -2.38833,1.6371 -4.76633,3.28875 -7.13927,4.94823 -2.29664,1.60597 -4.60286,3.19721 -6.91471,4.781 -2.44841,1.67828 -4.88674,3.37098 -7.32101,5.06985 -0.23653,0.16502 -0.47306,0.33004 -0.71675,0.50006 -0.64511,0.45066 -1.28941,0.90246 -1.93351,1.35457 -0.26841,0.18683 -0.26841,0.18683 -0.54224,0.37744 -0.38903,0.2734 -0.77231,0.555 -1.15393,0.83871 0,0.0803 0,0.16054 0,0.24324 16.95201,2.72905 33.90402,5.45809 51.36972,8.26984 0,3.63195 0,3.63195 -0.10119,5.30044 -0.0163,0.28779 -0.0163,0.28779 -0.033,0.5814 -0.036,0.6305 -0.0732,1.26091 -0.1105,1.89133 -0.0263,0.45701 -0.0526,0.91402 -0.0788,1.37104 -0.0562,0.978 -0.11296,1.95597 -0.17017,2.93391 -0.0905,1.54768 -0.17971,3.09544 -0.26871,4.64321 -0.17299,3.00495 -0.34732,6.00982 -0.52179,9.01468 -0.22222,3.82829 -0.44379,7.65662 -0.6642,11.48502 -0.0886,1.53742 -0.17777,3.0748 -0.26749,4.61215 -0.0557,0.95678 -0.11092,1.91358 -0.16599,2.8704 -0.0256,0.44231 -0.0513,0.8846 -0.0774,1.32689 -0.0356,0.60562 -0.0704,1.21128 -0.10505,1.81695 -0.0104,0.17318 -0.0207,0.34635 -0.0314,0.52478 -0.0691,1.22791 -0.0778,2.44931 -0.0698,3.67919 1.04554,-0.63994 1.8556,-1.34827 2.70706,-2.22898 0.42567,-0.42912 0.86437,-0.82674 1.32135,-1.22185 0.88599,-0.76699 1.74702,-1.55795 2.60483,-2.3563 0.93314,-0.86817 1.86912,-1.73216 2.81685,-2.58433 0.93693,-0.84277 1.8634,-1.69606 2.78657,-2.55392 1.12097,-1.04158 2.25028,-2.07283 3.38761,-3.09644 1.05561,-0.95448 2.10074,-1.92045 3.14695,-2.88528 0.60796,-0.56048 1.21658,-1.12023 1.82513,-1.68005 0.24263,-0.22328 0.48526,-0.44656 0.72788,-0.66984 0.48133,-0.4429 0.9628,-0.88565 1.4444,-1.32827 1.12818,-1.03711 2.25529,-2.07532 3.37849,-3.11787 0.3995,-0.37055 0.79966,-0.74036 1.19984,-1.11016 0.47529,-0.43956 0.9466,-0.88228 1.416,-1.32827 6.28672,-5.90439 6.28672,-5.90439 9.90064,-6.08172 2.70845,0.15404 4.61244,1.62097 6.64838,3.29882 0.13119,0.10793 0.26237,0.21587 0.39754,0.32708 2.06934,1.71684 4.02921,3.54543 5.97919,5.39644 0.89079,0.84489 1.79838,1.66927 2.71273,2.48837 0.73228,0.6612 1.45529,1.33205 2.17795,2.0038 1.11965,1.04039 2.24744,2.07065 3.38383,3.09264 0.70373,0.63676 1.40124,1.28005 2.09844,1.924 0.78438,0.72416 1.57171,1.44346 2.37767,2.14347 1.01372,0.88162 1.99344,1.79902 2.97675,2.71443 0.70058,0.65103 1.40455,1.29538 2.1269,1.92216 0.8659,0.75133 1.70508,1.52961 2.54426,2.31069 2.19972,2.05178 2.19972,2.05178 4.53858,3.9392 0.17185,0.12859 0.3437,0.25718 0.52076,0.38967 0.19435,0.14479 0.19435,0.14479 0.39263,0.29251 -0.57138,-10.74304 -1.17416,-21.48436 -1.78509,-32.2252 -0.0221,-0.38862 -0.0442,-0.77723 -0.0663,-1.16585 -0.0109,-0.19231 -0.0219,-0.38462 -0.0331,-0.58276 -0.0776,-1.36543 -0.15468,-2.73089 -0.23153,-4.09636 -0.095,-1.68782 -0.19072,-3.3756 -0.28734,-5.06334 -0.0502,-0.87791 -0.10015,-1.75584 -0.14922,-2.63382 -0.0539,-0.96438 -0.10939,-1.92867 -0.16501,-2.89296 -0.0157,-0.28565 -0.0315,-0.57131 -0.0477,-0.86562 -0.0152,-0.25978 -0.0305,-0.51957 -0.0462,-0.78722 -0.0128,-0.22559 -0.0256,-0.45118 -0.0388,-0.6836 -0.0403,-0.60544 -0.0403,-0.60544 -0.29969,-1.29789 0.25933,-0.0139 0.25933,-0.0139 0.5239,-0.028 2.46767,-0.15908 4.88456,-0.53887 7.3242,-0.9311 0.46639,-0.074 0.93279,-0.14796 1.39921,-0.22179 1.25764,-0.19938 2.51504,-0.4003 3.77239,-0.60153 1.31872,-0.21079 2.63767,-0.42018 3.95659,-0.62974 2.2121,-0.35168 4.42406,-0.70428 6.63592,-1.05752 3.11965,-0.49822 6.23957,-0.9947 9.35954,-1.49087 2.16329,-0.3441 4.32652,-0.6886 6.48973,-1.03319 0.52401,-0.0835 1.04802,-0.16693 1.57204,-0.25037 1.49224,-0.23766 2.98444,-0.47557 4.47657,-0.71389 0.45195,-0.0722 0.90392,-0.14422 1.35591,-0.2162 0.61646,-0.0982 1.23288,-0.1967 1.84929,-0.29528 0.17912,-0.0285 0.35823,-0.0569 0.54277,-0.0863 0.86952,-0.13941 1.73439,-0.28969 2.59629,-0.47084 -0.6522,-0.68712 -1.30981,-1.24261 -2.09371,-1.77198 -0.21738,-0.14766 -0.43476,-0.29531 -0.65872,-0.44745 -0.23116,-0.15553 -0.46232,-0.31107 -0.70049,-0.47132 -0.48623,-0.32995 -0.97243,-0.65996 -1.45859,-0.99002 -0.23821,-0.16124 -0.47642,-0.32248 -0.72185,-0.4886 -0.86625,-0.58731 -1.72897,-1.17964 -2.59004,-1.77459 -0.15022,-0.10368 -0.30044,-0.20736 -0.45522,-0.31419 -1.65909,-1.14691 -3.31071,-2.30464 -4.96357,-3.46058 -1.6496,-1.15261 -3.30579,-2.29504 -4.96629,-3.43177 -1.75701,-1.20439 -3.50233,-2.42538 -5.2477,-3.64668 -1.45289,-1.01582 -2.91014,-2.02476 -4.37294,-3.02613 -1.94094,-1.3287 -3.86994,-2.67411 -5.79716,-4.02275 -1.70976,-1.19548 -3.42667,-2.38 -5.14779,-3.55892 -1.32609,-0.9087 -2.64505,-1.82662 -3.95712,-2.75564 0.93388,-1.92997 1.93676,-3.79609 3.02888,-5.63992 1.1966,-2.03861 2.36807,-4.08876 3.51349,-6.15678 1.24448,-2.24491 2.52054,-4.46873 3.81639,-6.68409 1.01102,-1.73298 1.99541,-3.47942 2.96829,-5.23422 1.24458,-2.24485 2.52054,-4.46872 3.81639,-6.68409 1.15597,-1.98142 2.2746,-3.98231 3.38648,-5.98891 1.16281,-2.09297 2.36002,-4.16455 3.57283,-6.22869 0.64612,-1.1025 1.27695,-2.1985 1.82443,-3.35392 -1.89147,0.45891 -3.75878,0.96718 -5.61951,1.53824 -0.26426,0.0804 -0.52852,0.16079 -0.80079,0.24362 -0.73757,0.22442 -1.47496,0.44941 -2.21232,0.67455 -1.51447,0.46199 -3.02975,0.92134 -4.54489,1.38112 -0.18551,0.0563 -0.37102,0.11264 -0.56216,0.17066 -5.70217,1.73074 -11.41002,3.44247 -17.11743,5.15569 -0.8644,0.25951 -1.72876,0.51913 -2.59311,0.77879 -1.38686,0.41661 -2.77378,0.83302 -4.16076,1.24925 -0.51264,0.15388 -1.02527,0.30781 -1.53788,0.46181 -1.4086,0.42313 -2.81754,0.84504 -4.22711,1.26488 -0.50818,0.15141 -1.01627,0.30309 -1.5243,0.45497 -0.80599,0.24066 -1.61238,0.47992 -2.41888,0.71884 -0.2493,0.0746 -0.49859,0.14926 -0.75544,0.22615 -0.23056,0.068 -0.46112,0.13599 -0.69866,0.20605 -0.20353,0.0605 -0.40707,0.12094 -0.61676,0.18324 -0.52587,0.12921 -0.52587,0.12921 -1.2528,0.12921 -2.14939,-5.19023 -4.25339,-10.39866 -6.34549,-15.61237 -0.0654,-0.16293 -0.13076,-0.32585 -0.19812,-0.49372 -0.59424,-1.48091 -1.18837,-2.96187 -1.7824,-4.44286 -1.35239,-3.37144 -2.7092,-6.74108 -4.06706,-10.1103 -0.18229,-0.45232 -0.36457,-0.90463 -0.54685,-1.35695 -0.0897,-0.22246 -0.17932,-0.44493 -0.27169,-0.67413 -0.59828,-1.48483 -1.19551,-2.97008 -1.79218,-4.45556 -0.42404,-1.05565 -0.84837,-2.11118 -1.2727,-3.16671 -0.2017,-0.50194 -0.40326,-1.00393 -0.60468,-1.50598 -0.27859,-0.69437 -0.55765,-1.38854 -0.83681,-2.08268 -0.0811,-0.20241 -0.16213,-0.40483 -0.24565,-0.61338 -0.52709,-1.30892 -1.0843,-2.60176 -1.66348,-3.88829 -0.08,0 -0.15993,0 -0.24231,0 z"
     fill="#000000"
     id="path1"
     style="stroke-width:0.24277" />
</svg>
