<?xml version="1.0" encoding="UTF-8"?>
<svg id="Layer_1" data-name="Layer 1" xmlns="http://www.w3.org/2000/svg" viewBox="0 0 1080 1080">
  <path d="M954.7,955.99c-127.32,0-249.86,0-372.4,0-84.95,0-169.89.29-254.84-.08-110.26-.47-198.9-78.3-201.23-188.92-4.26-202.84-1.17-405.82-1.94-608.74-.1-27.47,11.93-34.4,37.2-34.31,199.78.67,399.58-1,599.34.98,98.26.98,189.35,77.23,192.01,173.78,5.95,216.62,1.86,433.51,1.86,657.29ZM453.47,525.5c-26.17,20.23-50.87,39.33-81.23,62.8,38.17,7.2,66.81,12.61,98.76,18.64v99.82c28.82-24.8,51.79-44.57,75.06-64.59,25.84,22.38,47.71,41.34,75.95,65.8v-100.81c32.22-6.79,61.18-12.89,98.07-20.67-32.74-23.82-57.51-41.84-82.9-60.32,17.25-31.35,32.1-58.32,50.22-91.26-37.3,10.07-68.14,18.4-99.99,27-14.15-31.1-26.69-58.66-42.27-92.9-15.52,35.44-27.78,63.43-40.68,92.88-33.68-8.96-64.22-17.09-100.29-26.69,18.41,33.73,33.31,61.04,49.29,90.3Z"/>
</svg>